<svg width="609" height="134" viewBox="0 0 609 134" fill="none" xmlns="http://www.w3.org/2000/svg">
<path d="M0.0200195 60.55V132.08H22.03V60.55C22.03 39.28 39.27 22.03 60.55 22.03H110.07V49.54C110.07 70.81 92.83 88.06 71.55 88.06H33.03V110.07H71.55C104.98 110.07 132.08 82.97 132.08 49.54V5.53003C132.08 2.49003 129.62 0.0300293 126.58 0.0300293H60.55C27.12 0.0300293 0.0200195 27.13 0.0200195 60.56V60.55Z" fill="#FF0078"/>
<path d="M262.73 33.14C262.73 34.13 262.65 35.12 262.54 36.11H226.81C227.94 43.24 233.08 47.63 240.28 47.63C245.54 47.63 249.8 45.2 252.13 41.18H261.66C258.16 50.47 250.12 56.11 240.29 56.11C227.42 56.11 217.67 46.18 217.67 33.03C217.67 19.88 227.39 9.94995 240.29 9.94995C253.19 9.94995 262.73 20.33 262.73 33.14V33.14ZM240.29 18.13C233.48 18.13 228.53 22.23 227.04 28.76H253.66C252.04 22.07 247 18.13 240.29 18.13Z" fill="#323E48"/>
<path d="M307.75 11.03V55.05H298.82V36.63H278.45V55.05H269.52V11.03H278.45V28.28H298.82V11.03H307.75Z" fill="#323E48"/>
<path d="M359.58 33.14C359.58 34.13 359.5 35.12 359.39 36.11H323.66C324.79 43.24 329.93 47.63 337.13 47.63C342.39 47.63 346.65 45.2 348.98 41.18H358.51C355.01 50.47 346.97 56.11 337.14 56.11C324.27 56.11 314.52 46.18 314.52 33.03C314.52 19.88 324.24 9.94995 337.14 9.94995C350.04 9.94995 359.58 20.33 359.58 33.14V33.14ZM337.14 18.13C330.33 18.13 325.38 22.23 323.89 28.76H350.51C348.89 22.07 343.85 18.13 337.14 18.13Z" fill="#323E48"/>
<path d="M386.99 56.12C373.88 56.12 363.92 46.14 363.92 32.99C363.92 19.84 373.85 9.94995 387.01 9.94995C397.89 9.94995 406.39 16.61 408.84 26.71H399.87C397.55 21.65 392.72 18.59 386.99 18.59C379.07 18.59 373.13 24.85 373.13 33.01C373.13 41.17 379.15 47.48 386.99 47.48C392.75 47.48 397.42 44.37 399.81 39.02H408.94C406.52 49.31 397.85 56.12 386.99 56.12V56.12Z" fill="#323E48"/>
<path d="M435.66 56.12C422.55 56.12 412.59 46.14 412.59 32.99C412.59 19.84 422.52 9.94995 435.68 9.94995C446.56 9.94995 455.06 16.61 457.51 26.71H448.54C446.22 21.65 441.4 18.59 435.66 18.59C427.74 18.59 421.8 24.85 421.8 33.01C421.8 41.17 427.82 47.48 435.66 47.48C441.42 47.48 446.09 44.37 448.48 39.02H457.61C455.19 49.31 446.52 56.12 435.66 56.12Z" fill="#323E48"/>
<path d="M508.32 11.01V55.03H501.02L500.14 49.68C496.15 53.71 490.59 56.13 484.18 56.13C471.07 56.13 461.26 46.22 461.26 33.02C461.26 19.82 471.07 9.95996 484.18 9.95996C490.67 9.95996 496.29 12.41 500.28 16.51L501.34 11H508.32V11.01ZM499.25 33.02C499.25 24.72 493.19 18.58 484.89 18.58C476.59 18.58 470.47 24.78 470.47 33.02C470.47 41.26 476.59 47.46 484.89 47.46C493.19 47.46 499.25 41.32 499.25 33.02Z" fill="#323E48"/>
<path d="M556.21 11.03V55.05H547.28V36.63H526.91V55.05H517.98V11.03H526.91V28.28H547.28V11.03H556.21Z" fill="#323E48"/>
<path d="M586.06 56.12C572.95 56.12 562.99 46.14 562.99 32.99C562.99 19.84 572.92 9.94995 586.08 9.94995C596.96 9.94995 605.46 16.61 607.91 26.71H598.94C596.62 21.65 591.8 18.59 586.06 18.59C578.14 18.59 572.2 24.85 572.2 33.01C572.2 41.17 578.22 47.48 586.06 47.48C591.82 47.48 596.49 44.37 598.88 39.02H608.01C605.59 49.31 596.92 56.12 586.06 56.12Z" fill="#323E48"/>
<path d="M205.89 18.27C205.89 12.83 201.86 8.82002 196.08 8.82002H185.4V27.72H196.08C201.86 27.72 205.89 23.71 205.89 18.27ZM215.34 18.27C215.34 28.7 207.27 36.51 196.52 36.51H185.39V55.05H176.1V0.0200195H196.52C207.21 0.0200195 215.34 7.78002 215.34 18.26V18.27Z" fill="#323E48"/>
<path d="M266.24 88.04V132.06H258.94L258.06 126.71C254.07 130.74 248.51 133.16 242.1 133.16C228.99 133.16 219.18 123.25 219.18 110.05C219.18 96.85 228.99 86.99 242.1 86.99C248.59 86.99 254.21 89.44 258.2 93.54L259.26 88.03H266.24V88.04ZM257.17 110.05C257.17 101.75 251.11 95.61 242.81 95.61C234.51 95.61 228.39 101.81 228.39 110.05C228.39 118.29 234.51 124.49 242.81 124.49C251.11 124.49 257.17 118.35 257.17 110.05Z" fill="#323E48"/>
<path d="M314.13 88.0601V132.08H305.2V113.66H284.83V132.08H275.9V88.0601H284.83V105.31H305.2V88.0601H314.13V88.0601Z" fill="#323E48"/>
<path d="M323.78 88.0601H332.83V132.08H323.78V88.0601ZM361.68 132.08H350.8L333.55 109.63V108.87L349.78 88.0601H360.05L343.43 109.11L361.68 132.08V132.08Z" fill="#323E48"/>
<path d="M205.21 114.71C205.21 109.71 201.47 106.23 196.16 106.23H185.32V123.29H196.1C201.41 123.29 205.21 119.68 205.21 114.71ZM214.71 114.71C214.71 124.8 207.19 132.08 196.84 132.08H176.11V77.0601H210.57V85.6901H185.32V97.4701H196.94C207.34 97.4701 214.71 104.68 214.71 114.71Z" fill="#323E48"/>
</svg>
